<svg width="965" height="768" viewBox="0 0 965 768" fill="none" xmlns="http://www.w3.org/2000/svg">
<g clip-path="url(#clip0_24_64)">
<path opacity="0.099" d="M467.755 771.353L18.744 505.73C4.44901 497.683 -7.80399 484.5 6.12401 475.852L456.734 215.89C463.488 211.696 473.752 208.944 480.637 212.954L951.902 486.781C966.198 495.089 968.763 518.231 954.521 526.618L526.925 770.933C517.951 776.145 507.773 778.925 497.396 778.999C487.019 779.072 476.802 776.437 467.755 771.353V771.353Z" fill="#6862E6"/>
<path opacity="0.099" d="M467.755 395.353L18.744 129.73C4.44901 121.683 -7.80399 108.5 6.12401 99.8521L456.734 -160.11C463.488 -164.304 473.752 -167.056 480.637 -163.046L951.902 110.781C966.198 119.089 968.763 142.231 954.521 150.618L526.925 394.933C517.951 400.145 507.773 402.925 497.396 402.999C487.019 403.072 476.802 400.437 467.755 395.353V395.353Z" stroke="#1E1F36"/>
<path opacity="0.099" d="M467.755 470.353L18.744 204.73C4.44901 196.683 -7.80399 183.5 6.12401 174.852L456.734 -85.1099C463.488 -89.3039 473.752 -92.0559 480.637 -88.0459L951.902 185.781C966.198 194.089 968.763 217.231 954.521 225.618L526.925 469.933C517.951 475.145 507.773 477.925 497.396 477.999C487.019 478.072 476.802 475.437 467.755 470.353V470.353Z" stroke="#1E1F36"/>
</g>
<defs>
<clipPath id="clip0_24_64">
<rect width="965" height="768" fill="white"/>
</clipPath>
</defs>
</svg>
