<svg width="481" height="367" viewBox="0 0 481 367" fill="none" xmlns="http://www.w3.org/2000/svg">
<path d="M237.877 353.429L18.1717 223.79C11.1767 219.863 5.18166 213.428 11.9967 209.208L232.484 82.3314C235.789 80.285 240.811 78.9416 244.18 80.8983L474.775 214.541C481.769 218.596 483.025 229.891 476.055 233.984L266.831 353.224C262.44 355.768 257.459 357.125 252.381 357.161C247.304 357.197 242.304 355.91 237.878 353.429H237.877Z" fill="#5B36A0"/>
<path d="M237.877 347.445L18.1717 217.806C11.1767 213.879 5.18166 207.445 11.9967 203.224L232.484 76.3478C235.789 74.3013 240.811 72.958 244.18 74.9147L474.775 208.558C481.769 212.612 483.025 223.908 476.055 228.001L266.831 347.241C262.44 349.784 257.459 351.141 252.381 351.177C247.304 351.213 242.304 349.927 237.878 347.445H237.877Z" fill="#6862E6"/>
<path style="mix-blend-mode:multiply" opacity="0.25" d="M255.992 176.401L212.639 201.101C212.639 201.101 279.422 241.79 293.078 247.52L318.046 211.705" fill="url(#paint0_linear_24_54)"/>
<path style="mix-blend-mode:multiply" opacity="0.25" d="M241.016 294.898L197.651 270.25L154.287 294.95C154.287 294.95 176.872 308.712 198.458 321.351C212.166 311.667 225.886 301.883 241.016 294.898V294.898Z" fill="url(#paint1_linear_24_54)"/>
<path style="mix-blend-mode:multiply" opacity="0.46" d="M147.587 142.683L120.082 158.352C120.082 158.352 122.413 172.717 136.07 178.448L172.08 155.423" fill="url(#paint2_linear_24_54)"/>
<path d="M161.051 158.352C170.213 158.352 177.641 153.129 177.641 146.687C177.641 140.244 170.213 135.022 161.051 135.022C151.888 135.022 144.461 140.244 144.461 146.687C144.461 153.129 151.888 158.352 161.051 158.352Z" fill="#68E1FD"/>
<path d="M161.038 144.883C167.9 144.883 173.464 142.609 173.464 139.805C173.464 137 167.9 134.727 161.038 134.727C154.175 134.727 148.612 137 148.612 139.805C148.612 142.609 154.175 144.883 161.038 144.883Z" fill="#974C26"/>
<path d="M160.589 131.337C160.589 129.047 160.513 126.758 160.333 124.469C160.282 123.871 160.227 123.279 160.167 122.69L160.039 121.527C160.039 121.181 159.859 120.247 159.859 120.337C159.782 119.868 159.701 119.403 159.616 118.943C158.261 111.171 155.237 103.783 150.751 97.2866C149.063 101.298 148.221 105.612 148.278 109.962C148.278 111.243 148.381 112.521 148.483 113.724V114.479C148.586 115.092 148.701 115.757 148.829 116.32C149.317 118.653 149.972 120.949 150.789 123.189C151.523 125.251 152.418 127.253 153.467 129.176C154.597 131.34 155.824 133.452 157.143 135.507C158.094 137.007 159.09 138.479 160.128 139.92C160.436 137.068 160.577 134.202 160.589 131.337V131.337ZM154.069 105.588C154.134 105.293 154.134 104.988 154.069 104.693C154.385 105.017 154.697 105.35 155.004 105.691C154.696 105.603 154.375 105.569 154.056 105.588H154.069Z" fill="#999A1C"/>
<path d="M164.855 133.102C166.125 131.191 167.292 129.214 168.353 127.18C168.635 126.652 168.908 126.123 169.173 125.595L169.698 124.532L170.198 123.432L170.748 122.153C173.819 114.875 175.274 107.02 175.014 99.1287C171.412 101.593 168.359 104.771 166.047 108.466C165.383 109.532 164.763 110.625 164.189 111.741L163.933 112.214L163.869 112.419C163.626 112.995 163.382 113.57 163.152 114.159C162.301 116.388 161.612 118.675 161.089 121.002C160.59 123.135 160.261 125.303 160.103 127.487C159.876 129.915 159.765 132.352 159.77 134.79C159.77 136.696 159.77 138.437 159.885 140.112C161.589 137.848 163.305 135.52 164.855 133.102V133.102ZM173.311 107.917C173.511 107.691 173.66 107.425 173.746 107.136C173.84 107.58 173.921 108.006 173.99 108.415C173.79 108.216 173.56 108.048 173.31 107.917H173.311Z" fill="#999A1C"/>
<path d="M164.766 138.807C166.07 138.16 167.351 137.469 168.609 136.735L169.569 136.147L170.198 135.75L170.813 135.315L171.53 134.79C175.535 131.854 178.857 128.088 181.266 123.752C178.531 123.927 175.862 124.663 173.426 125.914C172.721 126.273 172.042 126.669 171.363 127.077L171.069 127.257L170.966 127.347L170.018 128.05C168.837 128.98 167.724 129.993 166.688 131.082C165.73 132.073 164.851 133.137 164.061 134.266C163.171 135.521 162.317 136.801 161.499 138.103C160.918 139.059 160.367 140.032 159.846 141.02C161.499 140.329 163.152 139.613 164.766 138.807V138.807ZM177.474 127.935C177.655 127.878 177.821 127.782 177.961 127.653C177.867 127.926 177.765 128.194 177.653 128.459C177.619 128.28 177.559 128.108 177.474 127.947V127.935ZM160.589 131.337C160.589 129.047 160.513 126.758 160.333 124.469C160.282 123.871 160.227 123.279 160.167 122.69L160.039 121.527C160.039 121.181 159.859 120.247 159.859 120.337C159.782 119.868 159.701 119.403 159.616 118.943C158.261 111.171 155.237 103.783 150.751 97.2866C149.063 101.298 148.221 105.612 148.278 109.962C148.278 111.243 148.381 112.521 148.483 113.724V114.479C148.586 115.092 148.701 115.757 148.829 116.32C149.317 118.653 149.972 120.949 150.789 123.189C151.523 125.251 152.418 127.253 153.467 129.176C154.597 131.34 155.824 133.452 157.143 135.507C158.094 137.007 159.09 138.479 160.128 139.92C160.436 137.068 160.577 134.202 160.589 131.337V131.337ZM154.069 105.588C154.134 105.293 154.134 104.988 154.069 104.693C154.385 105.017 154.697 105.35 155.004 105.691C154.696 105.603 154.375 105.569 154.056 105.588H154.069Z" fill="#999A1C"/>
<path d="M164.855 133.102C166.125 131.191 167.292 129.214 168.353 127.18C168.635 126.652 168.908 126.123 169.173 125.595L169.698 124.532L170.198 123.432L170.748 122.153C173.819 114.875 175.274 107.02 175.014 99.1287C171.412 101.593 168.359 104.771 166.047 108.466C165.383 109.532 164.763 110.625 164.189 111.741L163.933 112.214L163.869 112.419C163.626 112.995 163.382 113.57 163.152 114.159C162.301 116.388 161.612 118.675 161.089 121.002C160.59 123.135 160.261 125.303 160.103 127.487C159.876 129.915 159.765 132.352 159.77 134.79C159.77 136.696 159.77 138.437 159.885 140.112C161.589 137.848 163.305 135.52 164.855 133.102V133.102ZM173.311 107.917C173.511 107.691 173.66 107.425 173.746 107.136C173.84 107.58 173.921 108.006 173.99 108.415C173.79 108.216 173.56 108.048 173.31 107.917H173.311Z" fill="#999A1C"/>
<path d="M164.766 138.807C166.07 138.16 167.351 137.469 168.609 136.735L169.569 136.147L170.198 135.75L170.813 135.315L171.53 134.79C175.535 131.854 178.857 128.088 181.266 123.751C178.531 123.927 175.862 124.663 173.426 125.914C172.721 126.273 172.042 126.669 171.363 127.077L171.069 127.257L170.966 127.347L170.018 128.05C168.837 128.98 167.724 129.993 166.688 131.081C165.73 132.073 164.851 133.137 164.061 134.266C163.171 135.521 162.317 136.801 161.499 138.103C160.918 139.059 160.367 140.032 159.846 141.02C161.499 140.329 163.152 139.613 164.766 138.806V138.807ZM177.474 127.935C177.655 127.878 177.821 127.782 177.961 127.653C177.867 127.926 177.765 128.194 177.653 128.459C177.619 128.28 177.559 128.108 177.474 127.947V127.935Z" fill="#999A1C"/>
<path d="M273.209 166.756L249.215 178.268C248.31 178.702 247.542 179.374 246.991 180.211C246.44 181.048 246.129 182.019 246.089 183.02C246.05 184.02 246.284 185.012 246.767 185.89C247.25 186.767 247.963 187.497 248.831 188.001L305.698 221.131C306.927 221.848 308.386 222.064 309.771 221.733C311.156 221.401 312.358 220.549 313.128 219.354L326.951 197.89" fill="#A1482D"/>
<path d="M403.713 111.23L212.383 1.14754C211.07 0.394028 209.582 -0.00174481 208.068 5.78233e-06C206.554 0.00175638 205.067 0.400969 203.757 1.15752C202.445 1.91489 201.357 3.00274 200.6 4.31201C199.843 5.62127 199.445 7.10595 199.445 8.61719V123.138C199.444 124.395 199.776 125.63 200.405 126.719C201.035 127.807 201.941 128.712 203.032 129.341L407.005 246.906C407.708 247.313 408.507 247.528 409.32 247.528C410.134 247.529 410.933 247.315 411.637 246.909C412.341 246.502 412.926 245.918 413.332 245.215C413.737 244.511 413.95 243.713 413.949 242.902V128.856C413.946 125.28 412.999 121.767 411.202 118.673C409.405 115.578 406.822 113.011 403.713 111.23V111.23Z" fill="#F47B56"/>
<path d="M212.396 9.808L397.948 116.398C399.929 117.538 401.575 119.178 402.72 121.154C403.864 123.13 404.467 125.371 404.468 127.653V213.495C404.467 214.316 404.249 215.123 403.838 215.834C403.427 216.545 402.836 217.137 402.124 217.549C401.412 217.961 400.604 218.178 399.782 218.181C398.959 218.183 398.15 217.97 397.436 217.563L208.207 109.195C207.498 108.789 206.91 108.205 206.5 107.499C206.091 106.794 205.876 105.994 205.876 105.179V13.5807C205.876 12.03 206.703 10.5969 208.047 9.81897C208.707 9.43665 209.457 9.23436 210.22 9.23244C210.984 9.23051 211.734 9.42901 212.397 9.808H212.396Z" fill="white"/>
<path d="M290.47 171.719C292.659 171.299 294.042 168.934 293.56 166.437C293.078 163.94 290.912 162.256 288.724 162.677C286.535 163.097 285.151 165.462 285.633 167.959C286.116 170.456 288.281 172.14 290.47 171.719Z" fill="#AB643C"/>
<path opacity="0.32" d="M262.269 126.272L348.499 178L391.094 153.274L314.985 109.042" fill="url(#paint3_linear_24_54)"/>
<path d="M368.829 115.975L275.605 59.2194C275.106 58.9314 274.538 58.7821 273.962 58.787C273.385 58.7919 272.821 58.9508 272.327 59.2473C271.832 59.5438 271.426 59.9669 271.151 60.4726C270.876 60.9784 270.741 61.5484 270.762 62.1234V94.4613C270.758 95.046 270.905 95.6218 271.191 96.1328C271.476 96.6437 271.888 97.0725 272.389 97.3774L365.601 152.93C366.598 153.495 367.821 153.488 368.811 152.91C369.297 152.626 369.701 152.22 369.981 151.731C370.26 151.243 370.407 150.69 370.405 150.128L370.892 119.98C370.928 119.191 370.756 118.406 370.394 117.704C370.032 117.002 369.493 116.406 368.829 115.976V115.975Z" fill="#E2AC00"/>
<path d="M346.526 132.616C349.869 137.285 355.749 138.59 359.644 135.545C363.538 132.501 363.987 126.247 360.644 121.59C357.299 116.934 351.419 115.617 347.524 118.661C343.63 121.705 343.182 127.947 346.526 132.616V132.616Z" fill="white"/>
<path d="M337.379 110.206L299.356 87.3488C299.029 87.1961 298.657 87.1706 298.313 87.2773C297.968 87.3839 297.676 87.615 297.494 87.9252C297.311 88.2356 297.251 88.6029 297.325 88.9551C297.4 89.3074 297.603 89.6194 297.896 89.83L335.918 112.688C336.244 112.84 336.616 112.866 336.961 112.759C337.305 112.653 337.597 112.421 337.78 112.111C337.963 111.801 338.023 111.434 337.949 111.082C337.874 110.729 337.671 110.417 337.379 110.206V110.206ZM335.816 119.493L283.406 87.988C283.085 87.8781 282.735 87.8839 282.418 88.0045C282.101 88.1251 281.836 88.3529 281.67 88.6481C281.504 88.9433 281.447 89.2872 281.509 89.62C281.571 89.9528 281.748 90.2533 282.01 90.4692L334.355 121.986C334.681 122.139 335.053 122.164 335.398 122.058C335.742 121.951 336.034 121.72 336.217 121.41C336.4 121.1 336.46 120.732 336.386 120.38C336.311 120.028 336.108 119.716 335.816 119.505V119.492V119.493Z" fill="#F2F2F2"/>
<path d="M350.228 122.243L257.055 65.5004C256.556 65.2124 255.988 65.0631 255.412 65.068C254.835 65.0729 254.271 65.2318 253.777 65.5283C253.282 65.8248 252.876 66.2479 252.601 66.7537C252.326 67.2594 252.191 67.8294 252.212 68.4045V100.727C252.204 101.313 252.349 101.891 252.632 102.405C252.915 102.918 253.327 103.35 253.827 103.657L347.038 159.209C348.046 159.787 349.288 159.777 350.286 159.184C350.776 158.892 351.18 158.475 351.456 157.976C351.732 157.477 351.869 156.914 351.855 156.344L352.342 126.196C352.363 125.411 352.18 124.634 351.809 123.94C351.438 123.247 350.893 122.662 350.228 122.243V122.243Z" fill="#F47B56"/>
<path d="M327.924 138.884C331.268 143.553 337.148 144.858 341.043 141.813C344.937 138.769 345.385 132.514 342.042 127.858C338.698 123.201 332.818 121.885 328.924 124.928C325.029 127.973 324.581 134.215 327.924 138.884Z" fill="white"/>
<path d="M318.777 116.473L280.729 93.6156C280.402 93.463 280.03 93.4375 279.686 93.5441C279.341 93.6508 279.049 93.8818 278.867 94.192C278.684 94.5025 278.624 94.8697 278.698 95.222C278.773 95.5743 278.976 95.8862 279.269 96.0968L317.291 118.955C317.617 119.107 317.989 119.133 318.334 119.026C318.678 118.919 318.97 118.688 319.153 118.378C319.336 118.068 319.396 117.701 319.322 117.348C319.247 116.996 319.044 116.684 318.752 116.473H318.777V116.473ZM317.202 125.824L264.805 94.2678C264.478 94.1153 264.106 94.09 263.761 94.1968C263.417 94.3036 263.125 94.5349 262.943 94.8452C262.76 95.1557 262.7 95.5229 262.774 95.8752C262.849 96.2275 263.052 96.5394 263.345 96.75L315.754 128.254C316.08 128.407 316.452 128.432 316.797 128.326C317.141 128.219 317.433 127.988 317.616 127.678C317.798 127.367 317.858 127 317.784 126.648C317.71 126.296 317.506 125.984 317.214 125.773L317.202 125.824V125.824Z" fill="#F2F2F2"/>
<path d="M326.849 126.055L233.649 69.3129C233.15 69.0247 232.582 68.8753 232.006 68.88C231.429 68.8847 230.865 69.0435 230.371 69.3398C229.876 69.6364 229.471 70.0596 229.196 70.5653C228.921 71.0711 228.786 71.641 228.807 72.216V104.54C228.803 105.125 228.95 105.7 229.236 106.211C229.521 106.722 229.933 107.151 230.434 107.456L323.645 163.009C324.653 163.587 325.895 163.577 326.894 162.983C327.384 162.691 327.788 162.274 328.063 161.775C328.339 161.276 328.476 160.713 328.462 160.143L328.949 129.995C328.969 129.213 328.787 128.439 328.419 127.749C328.051 127.059 327.51 126.475 326.849 126.055V126.055Z" fill="#68E1FD"/>
<path d="M326.849 126.055L233.649 69.3129C233.15 69.0247 232.582 68.8753 232.006 68.88C231.429 68.8847 230.865 69.0435 230.371 69.3398C229.876 69.6364 229.471 70.0596 229.196 70.5653C228.921 71.0711 228.786 71.641 228.807 72.216V104.54C228.803 105.125 228.95 105.7 229.236 106.211C229.521 106.722 229.933 107.151 230.434 107.456L323.645 163.009C324.653 163.587 325.895 163.577 326.894 162.983C327.384 162.691 327.788 162.274 328.063 161.775C328.339 161.276 328.476 160.713 328.462 160.143L328.949 129.995C328.969 129.213 328.787 128.439 328.419 127.749C328.051 127.059 327.51 126.475 326.849 126.055V126.055Z" fill="#68E1FD"/>
<path d="M304.532 142.696C307.875 147.364 313.756 148.67 317.65 145.625C321.545 142.58 321.993 136.325 318.65 131.67C315.306 127.014 309.425 125.696 305.531 128.741C301.637 131.785 301.227 138.027 304.531 142.696H304.532Z" fill="white"/>
<path d="M295.385 120.286L257.35 97.4281C257.023 97.2755 256.651 97.25 256.307 97.3566C255.962 97.4633 255.67 97.6943 255.488 98.0045C255.305 98.3148 255.245 98.682 255.319 99.0343C255.393 99.3865 255.596 99.6985 255.889 99.9093L293.912 122.767C294.238 122.92 294.61 122.945 294.955 122.839C295.299 122.732 295.591 122.501 295.774 122.191C295.956 121.88 296.016 121.513 295.942 121.161C295.868 120.808 295.664 120.496 295.372 120.286H295.385V120.286ZM293.809 129.585L241.4 98.0793C241.073 97.9268 240.701 97.9015 240.356 98.0083C240.012 98.1151 239.72 98.3464 239.538 98.6567C239.355 98.9672 239.295 99.3344 239.369 99.6867C239.444 100.039 239.647 100.351 239.94 100.562L292.349 132.066C292.675 132.218 293.047 132.244 293.392 132.137C293.736 132.031 294.028 131.799 294.211 131.489C294.393 131.179 294.453 130.812 294.379 130.459C294.305 130.107 294.101 129.795 293.809 129.584V129.585Z" fill="#F2F2F2"/>
<path d="M204.531 122.882C198.507 128.06 193.952 134.725 191.323 142.209C186.685 155.002 198.279 175.902 198.279 175.902L216.317 161.64" fill="#FF8F6F"/>
<path d="M202.583 291.995L197.69 289.296L198.97 282.312C198.97 282.312 206.26 283.002 206.9 285.586" fill="#003B94"/>
<path d="M204.377 291.893C205.479 291.215 206.632 290.614 207.772 290.012C210.602 288.465 214.69 286.866 216.432 283.962C216.789 283.375 216.958 282.693 216.917 282.007C216.876 281.322 216.626 280.665 216.202 280.124C213.639 277.029 208.028 282.12 205.158 278.692C204.595 278.014 204.326 267.256 204.326 267.256L193.411 270.198C193.411 270.198 191.566 291.815 191.771 293.146C191.976 294.476 195.73 295.705 195.73 295.705C196.848 295.467 197.914 295.034 198.881 294.425C200.021 293.594 198.983 283.45 200.444 284.87C201.904 286.291 202.544 291.841 202.544 291.841C203.151 291.933 203.766 291.951 204.377 291.892V291.893Z" fill="#F47B56"/>
<path d="M223.427 302.444L218.533 299.785L219.813 292.801C219.813 292.801 227.103 293.492 227.743 296.075" fill="#003B94"/>
<path d="M225.271 302.343C226.373 301.665 227.526 301.064 228.666 300.463C231.497 298.915 235.584 297.317 237.326 294.413C237.683 293.825 237.852 293.144 237.811 292.458C237.77 291.772 237.52 291.116 237.096 290.575C234.533 287.479 228.922 292.571 226.053 289.143C225.489 288.465 225.22 277.707 225.22 277.707L214.305 280.649C214.305 280.649 212.448 302.343 212.653 303.622C212.858 304.901 216.611 306.18 216.611 306.18C217.729 305.943 218.796 305.51 219.763 304.901C220.903 304.07 219.865 293.927 221.326 295.347C222.786 296.766 223.426 302.318 223.426 302.318C224.037 302.402 224.657 302.41 225.271 302.343V302.343Z" fill="#F47B56"/>
<path d="M187.864 232.17L184.648 275.111C184.648 275.111 189.773 282.172 206.952 278.244L207.118 249.297L187.864 232.17ZM207.708 240.677C207.336 244.373 207.708 285.152 207.708 285.152C207.708 285.152 212.46 294.028 233.15 285.152L232.855 250.5" fill="#3E2928"/>
<path d="M186.262 246.355C187.672 247.328 188.158 242.326 189.632 243.184C194.991 246.292 200.679 248.797 206.593 250.654H206.721C206.862 250.585 207.015 250.546 207.171 250.538C207.328 250.53 207.484 250.553 207.631 250.607C207.778 250.661 207.913 250.744 208.028 250.851C208.142 250.957 208.233 251.086 208.297 251.229C211.949 252.317 215.668 253.172 219.43 253.787C224.26 254.555 228.256 250.987 233.214 250.743C233.214 231.787 233.304 177.833 225.22 166.321L201.302 158.288C201.187 160.258 189.696 173.561 189.977 189.781C190.297 208.059 187.915 225.302 187.505 231.019C187.441 231.992 186.314 245.32 186.262 246.355V246.355Z" fill="#3E2928"/>
<path d="M227.423 144.525L225.22 166.27C225.22 166.27 207.375 166.987 199.688 161.691V143.245" fill="#FF8F6F"/>
<path d="M250.111 130.212L248.292 132.693C249.262 130.675 250.118 128.604 250.854 126.49C251.367 125.044 249.048 124.469 248.536 125.914L248.266 126.656C248.489 125.888 248.698 125.117 248.894 124.34C248.934 124.187 248.944 124.028 248.922 123.871C248.901 123.715 248.848 123.564 248.768 123.428C248.687 123.292 248.58 123.173 248.453 123.078C248.326 122.984 248.181 122.916 248.027 122.878C247.873 122.839 247.714 122.832 247.557 122.856C247.4 122.88 247.25 122.935 247.115 123.018C246.98 123.1 246.862 123.209 246.769 123.337C246.677 123.465 246.611 123.611 246.575 123.764C246.072 125.772 245.469 127.753 244.769 129.7C245.16 127.971 245.443 126.219 245.615 124.455C245.769 122.934 243.373 122.998 243.232 124.455C243.033 126.463 242.673 128.452 242.156 130.403C242.156 129.721 242.092 129.039 241.964 128.357C241.946 128.187 241.893 128.022 241.806 127.874C241.72 127.726 241.603 127.599 241.464 127.499C241.399 127.232 241.322 126.967 241.234 126.706C241.143 126.438 240.961 126.211 240.719 126.064C240.477 125.917 240.19 125.859 239.91 125.902C239.629 125.945 239.373 126.085 239.187 126.298C239 126.511 238.894 126.783 238.889 127.066L238.735 136.019C238.302 136.947 237.736 137.809 237.057 138.577C238.209 139.373 239.321 140.227 240.388 141.135C241.339 141.938 242.246 142.792 243.104 143.693C243.869 142.742 244.608 141.77 245.32 140.777C245.408 140.702 245.486 140.617 245.55 140.521C247.683 137.368 249.888 134.263 252.161 131.209C253.109 130.16 251.021 128.996 250.111 130.212V130.212Z" fill="#FFB5A9"/>
<path d="M216.099 124.699C216.099 124.699 224.529 126.963 227.949 132.373C230.091 136.119 231.979 140.003 233.599 144.001L239.824 134.343C239.824 134.343 247.383 136.658 250.38 140.368C250.38 140.368 241.413 159.938 233.598 161.614C225.784 163.29 217.482 150.128 217.482 150.128C217.482 150.128 215.766 155.628 216.099 149.757" fill="#FF8F6F"/>
<path d="M221.454 145.612C219.003 143.621 217.154 140.991 216.112 138.015C215.099 134.574 216.368 131.554 217.546 128.357C218.822 125.187 219.566 121.829 219.75 118.418C219.852 115.067 219.468 111.716 219.237 108.376C219.204 108.233 219.204 108.085 219.237 107.942C218.11 104.169 215.804 100.971 211.257 100.587C199.483 99.5894 198.817 112.611 198.907 117.907C198.997 123.202 199.56 126.783 195.653 128.996C191.745 131.209 188.927 137.016 192.655 141.712C196.383 146.405 193.039 144.692 190.554 148.861C188.069 153.031 188.709 158.238 193.808 160.117C198.907 161.997 222.607 158.467 224.784 156.28C225.557 155.399 225.956 154.252 225.899 153.083C225.368 150.14 223.789 147.488 221.454 145.613V145.612Z" fill="#007F68"/>
<path d="M233.035 38.2165C235.03 41.0847 236.184 44.4515 236.365 47.938C236.588 49.5341 236.2 51.1556 235.277 52.4786C234.884 52.9101 234.358 53.1986 233.782 53.2984C233.207 53.3981 232.614 53.3033 232.099 53.0291C231.451 52.7714 230.866 52.3791 230.383 51.8782C229.948 51.4709 229.576 51.0009 229.281 50.484L228.974 49.8827C228.89 50.0399 228.786 50.186 228.666 50.3175C228.36 50.5547 227.999 50.709 227.616 50.7653C226.975 50.8837 226.313 50.8033 225.72 50.5349C224.303 49.9228 223.125 48.8678 222.363 47.5291C221.444 46.0738 220.931 44.4003 220.877 42.6813C220.783 41.9937 220.841 41.2939 221.047 40.631C221.253 39.9682 221.602 39.3582 222.069 38.8438C222.474 38.4529 222.991 38.1964 223.548 38.1093C224.105 38.0222 224.676 38.1087 225.182 38.3571C225.695 38.5615 226.168 38.8557 226.578 39.2277C226.928 39.5239 227.237 39.863 227.5 40.238L227.73 40.6469V39.509L230.293 40.5062L230.549 47.6956C230.567 48.2102 230.727 48.7099 231.011 49.1407C231.251 49.5566 231.62 49.8837 232.061 50.0742C233.299 50.5608 233.871 49.4947 233.778 46.8769C233.649 44.2843 232.792 41.78 231.305 39.6496C229.969 37.4834 227.984 35.7918 225.63 34.8147C224.776 34.3812 223.811 34.2141 222.86 34.335C221.909 34.4559 221.017 34.8594 220.3 35.4929C219.534 36.261 218.952 37.1908 218.595 38.2135C218.238 39.2362 218.116 40.3258 218.238 41.4018C218.384 44.1434 219.269 46.795 220.8 49.0769C222.018 51.3293 223.938 53.1251 226.27 54.1929C227.082 54.532 227.954 54.7016 228.833 54.6916C229.405 54.7304 229.977 54.6252 230.498 54.3854L231.011 54.1032L232.561 56.9813L232.304 57.1609C232.06 57.2972 231.808 57.4168 231.549 57.5189C231.139 57.6954 230.709 57.8161 230.267 57.8779C229.702 57.9536 229.129 57.9536 228.564 57.8779C227.821 57.7893 227.093 57.6043 226.399 57.3274C224.425 56.4798 222.672 55.1935 221.274 53.5666C219.616 51.7362 218.274 49.6441 217.303 47.3755C216.33 45.2083 215.774 42.8782 215.663 40.5062C215.525 38.5117 215.933 36.5181 216.842 34.738C217.596 33.2444 218.899 32.0987 220.48 31.5397C222.135 30.9954 223.935 31.0868 225.527 31.796C228.636 33.1083 231.26 35.352 233.035 38.2165V38.2165ZM227.385 47.3117C227.805 46.7752 227.995 46.094 227.91 45.4179C227.889 44.5845 227.655 43.7702 227.231 43.0523C226.884 42.4256 226.339 41.9309 225.681 41.6451C225.428 41.5152 225.142 41.4651 224.861 41.5016C224.579 41.5382 224.315 41.6596 224.105 41.8496C223.884 42.1008 223.719 42.3964 223.622 42.7163C223.525 43.0362 223.497 43.3732 223.542 43.7045C223.571 44.5482 223.822 45.369 224.272 46.083C224.642 46.7333 225.212 47.2449 225.899 47.5421C226.139 47.6649 226.412 47.7088 226.679 47.6675C226.946 47.6261 227.193 47.5015 227.385 47.3117ZM384.292 176.72C386.29 179.587 387.444 182.955 387.622 186.442C387.845 188.038 387.456 189.659 386.534 190.982C386.14 191.412 385.614 191.699 385.039 191.798C384.464 191.898 383.873 191.804 383.357 191.533C382.711 191.271 382.126 190.88 381.64 190.382C381.207 189.972 380.836 189.502 380.538 188.987L380.231 188.386C380.144 188.542 380.041 188.687 379.923 188.821C379.619 189.06 379.257 189.215 378.873 189.269C378.238 189.396 377.579 189.32 376.99 189.051C375.571 188.436 374.393 187.376 373.633 186.033C372.705 184.576 372.187 182.897 372.134 181.172C372.036 180.484 372.093 179.784 372.299 179.12C372.505 178.457 372.856 177.847 373.326 177.334C373.729 176.945 374.244 176.689 374.799 176.602C375.353 176.515 375.922 176.601 376.426 176.849C376.94 177.052 377.413 177.346 377.822 177.718C378.172 178.02 378.482 178.364 378.745 178.742L378.988 179.15V178.013L381.55 178.997L381.807 186.186C381.829 186.7 381.988 187.199 382.267 187.631C382.509 188.047 382.877 188.374 383.318 188.565C384.599 189.051 385.125 187.989 385.048 185.368C384.918 182.771 384.061 180.263 382.575 178.127C381.239 175.969 379.259 174.283 376.913 173.305C376.059 172.872 375.095 172.704 374.145 172.822C373.195 172.941 372.302 173.341 371.583 173.971C370.821 174.748 370.245 175.686 369.897 176.716C369.549 177.745 369.438 178.84 369.573 179.918C369.716 182.66 370.601 185.312 372.134 187.592C373.399 189.791 375.34 191.527 377.669 192.543C378.48 192.88 379.351 193.054 380.231 193.055C380.802 193.088 381.374 192.982 381.896 192.747L382.409 192.466L383.959 195.344L383.703 195.524C383.459 195.66 383.207 195.78 382.947 195.882C382.535 196.051 382.105 196.171 381.666 196.24C381.096 196.315 380.518 196.315 379.949 196.24C379.21 196.147 378.486 195.958 377.797 195.677C375.824 194.833 374.071 193.551 372.672 191.929C371.014 190.094 369.672 187.998 368.702 185.726C367.728 183.559 367.172 181.228 367.062 178.856C366.922 176.866 367.33 174.876 368.24 173.1C368.996 171.605 370.298 170.456 371.878 169.89C373.538 169.351 375.34 169.442 376.938 170.146C380.011 171.527 382.58 173.824 384.292 176.72V176.72ZM378.642 185.815C378.852 185.551 379.008 185.247 379.1 184.922C379.193 184.597 379.22 184.257 379.18 183.921C379.157 183.087 378.919 182.272 378.489 181.556C378.148 180.929 377.606 180.433 376.951 180.149C376.7 180.017 376.415 179.965 376.133 179.999C375.852 180.034 375.588 180.153 375.376 180.34C375.151 180.589 374.982 180.884 374.883 181.204C374.783 181.525 374.754 181.863 374.799 182.195C374.829 183.035 375.08 183.851 375.529 184.562C375.898 185.215 376.469 185.731 377.156 186.033C377.395 186.157 377.667 186.203 377.934 186.164C378.201 186.125 378.448 186.003 378.642 185.815" fill="#F47B56"/>
<path style="mix-blend-mode:multiply" opacity="0.25" d="M128.998 231.263L85.6327 206.626L42.2817 231.312C42.2817 231.312 66.4037 246.354 87.9907 258.993C101.698 249.322 113.881 238.259 128.998 231.262V231.263Z" fill="url(#paint4_linear_24_54)"/>
<g filter="url(#filter0_d_24_54)">
<path d="M50.93 162.881V216.751L92.898 240.786L140.285 212.761V158.891" fill="black"/>
</g>
<path d="M50.93 162.881V216.751L92.898 240.786L140.285 212.761V158.891" fill="#FF9271"/>
<path d="M92.899 186.917V240.787L140.286 212.761V158.891L92.899 186.917Z" fill="#DF5C34"/>
<path d="M50.93 162.88L99.624 135.126L140.286 158.893L92.899 186.918L50.93 162.88Z" fill="#F47B56"/>
<path d="M94.013 147.49C98.9502 147.157 103.88 148.242 108.22 150.619C110.706 152.081 112.064 153.607 112.256 155.198C112.448 156.788 111.628 158.173 109.694 159.341C108.777 159.908 107.766 160.307 106.709 160.521C105.84 160.726 104.949 160.816 104.057 160.79L103.083 160.713C103.174 160.93 103.234 161.159 103.263 161.393C103.232 161.947 103.055 162.482 102.75 162.945C102.243 163.805 101.519 164.517 100.65 165.01C98.6253 166.213 96.3046 166.826 93.95 166.78C91.5135 166.846 89.1062 166.238 86.993 165.023C84.994 163.843 83.97 162.457 83.893 160.867C83.9005 160.025 84.1447 159.202 84.5978 158.492C85.0508 157.782 85.6944 157.214 86.455 156.852C87.1848 156.397 87.9795 156.055 88.812 155.839C89.4758 155.647 90.1591 155.531 90.849 155.493H91.554L90.272 154.723L93.872 152.479L102.212 157.391C102.85 157.734 103.563 157.914 104.287 157.914C105.011 157.914 105.724 157.734 106.362 157.391C108.131 156.288 107.499 154.839 104.467 153.043C101.245 151.269 97.5816 150.454 93.911 150.696C90.0205 150.744 86.2147 151.838 82.893 153.864C79.87 155.754 78.371 158.007 78.397 160.624C78.397 163.188 79.998 165.472 83.111 167.306C86.5087 169.206 90.3675 170.126 94.257 169.961C98.1292 170.024 101.943 169.012 105.274 167.036C106.427 166.353 107.461 165.487 108.336 164.471C108.921 163.85 109.358 163.105 109.616 162.291L109.796 161.483L114.549 161.752C114.557 161.897 114.557 162.042 114.549 162.188C114.462 162.581 114.346 162.966 114.203 163.342C113.997 163.945 113.721 164.522 113.383 165.062C112.895 165.789 112.328 166.46 111.693 167.062C110.855 167.87 109.931 168.585 108.938 169.192C106.078 170.909 102.91 172.05 99.612 172.552C96.0182 173.18 92.3487 173.245 88.735 172.744C85.4501 172.357 82.2753 171.319 79.396 169.691C77.0711 168.46 75.2095 166.507 74.092 164.125C73.6353 163.086 73.3994 161.964 73.3994 160.829C73.3994 159.694 73.6353 158.571 74.092 157.532C75.199 155.107 77.0414 153.092 79.358 151.773C83.7719 149.06 88.8328 147.581 94.013 147.489V147.49ZM98.676 160.752C98.506 159.861 97.906 159.112 97.075 158.751C96.0659 158.156 94.9163 157.842 93.745 157.84C92.6561 157.799 91.5787 158.075 90.644 158.635C90.2674 158.819 89.9486 159.103 89.7227 159.456C89.4967 159.809 89.3723 160.217 89.363 160.636C89.48 161.526 90.053 162.29 90.875 162.65C91.9071 163.24 93.0805 163.537 94.269 163.51C95.4116 163.539 96.5393 163.245 97.523 162.663C97.8878 162.496 98.196 162.226 98.41 161.887C98.624 161.548 98.7345 161.153 98.728 160.752" fill="#3E2928"/>
<defs>
<filter id="filter0_d_24_54" x="0.929993" y="133.891" width="189.355" height="181.895" filterUnits="userSpaceOnUse" color-interpolation-filters="sRGB">
<feFlood flood-opacity="0" result="BackgroundImageFix"/>
<feColorMatrix in="SourceAlpha" type="matrix" values="0 0 0 0 0 0 0 0 0 0 0 0 0 0 0 0 0 0 127 0" result="hardAlpha"/>
<feOffset dy="25"/>
<feGaussianBlur stdDeviation="25"/>
<feColorMatrix type="matrix" values="0 0 0 0 0.209139 0 0 0 0 0.0691446 0 0 0 0 0.478091 0 0 0 0.497159 0"/>
<feBlend mode="normal" in2="BackgroundImageFix" result="effect1_dropShadow_24_54"/>
<feBlend mode="normal" in="SourceGraphic" in2="effect1_dropShadow_24_54" result="shape"/>
</filter>
<linearGradient id="paint0_linear_24_54" x1="277.128" y1="202.587" x2="263.235" y2="221.489" gradientUnits="userSpaceOnUse">
<stop stop-color="#78B46A"/>
<stop offset="0.03" stop-color="#7F3500"/>
<stop offset="1" stop-color="white"/>
</linearGradient>
<linearGradient id="paint1_linear_24_54" x1="225.566" y1="284.824" x2="196.412" y2="316.918" gradientUnits="userSpaceOnUse">
<stop stop-color="#78B46A"/>
<stop offset="0.03" stop-color="#7F3500"/>
<stop offset="1" stop-color="white"/>
</linearGradient>
<linearGradient id="paint2_linear_24_54" x1="162.023" y1="150.503" x2="140.164" y2="174.569" gradientUnits="userSpaceOnUse">
<stop stop-color="#78B46A"/>
<stop offset="0.03" stop-color="#7F3500"/>
<stop offset="1" stop-color="white"/>
</linearGradient>
<linearGradient id="paint3_linear_24_54" x1="366.637" y1="150.823" x2="353.524" y2="141.221" gradientUnits="userSpaceOnUse">
<stop stop-color="white" stop-opacity="0"/>
<stop offset="0.99" stop-color="#DC841E"/>
</linearGradient>
<linearGradient id="paint4_linear_24_54" x1="113.547" y1="221.046" x2="83.9671" y2="253.61" gradientUnits="userSpaceOnUse">
<stop stop-color="#78B46A"/>
<stop offset="0.03" stop-color="#7F3500"/>
<stop offset="1" stop-color="white"/>
</linearGradient>
</defs>
</svg>
